<mxfile host="app.diagrams.net" modified="2022-12-11T09:44:42.959Z" agent="5.0 (Windows NT 10.0; Win64; x64) AppleWebKit/537.36 (KHTML, like Gecko) Chrome/108.0.0.0 Safari/537.36" etag="OArNGX2yokgK3-fHk6B6" version="20.6.2" type="github">
  <diagram id="C5RBs43oDa-KdzZeNtuy" name="Page-1">
    <mxGraphModel dx="2062" dy="1114" grid="1" gridSize="10" guides="1" tooltips="1" connect="1" arrows="1" fold="1" page="1" pageScale="1" pageWidth="827" pageHeight="1169" math="0" shadow="0">
      <root>
        <mxCell id="WIyWlLk6GJQsqaUBKTNV-0" />
        <mxCell id="WIyWlLk6GJQsqaUBKTNV-1" parent="WIyWlLk6GJQsqaUBKTNV-0" />
        <mxCell id="REWSa89MCrhB0IccbXqg-2" value="" style="edgeStyle=orthogonalEdgeStyle;rounded=0;orthogonalLoop=1;jettySize=auto;html=1;" edge="1" parent="WIyWlLk6GJQsqaUBKTNV-1" source="WIyWlLk6GJQsqaUBKTNV-3" target="REWSa89MCrhB0IccbXqg-0">
          <mxGeometry relative="1" as="geometry" />
        </mxCell>
        <mxCell id="WIyWlLk6GJQsqaUBKTNV-3" value="СТАРТ" style="rounded=1;whiteSpace=wrap;html=1;fontSize=12;glass=0;strokeWidth=1;shadow=0;" parent="WIyWlLk6GJQsqaUBKTNV-1" vertex="1">
          <mxGeometry x="282" y="20" width="120" height="40" as="geometry" />
        </mxCell>
        <mxCell id="REWSa89MCrhB0IccbXqg-4" value="" style="edgeStyle=orthogonalEdgeStyle;rounded=0;orthogonalLoop=1;jettySize=auto;html=1;entryX=0;entryY=0.5;entryDx=0;entryDy=0;" edge="1" parent="WIyWlLk6GJQsqaUBKTNV-1" source="WIyWlLk6GJQsqaUBKTNV-6" target="REWSa89MCrhB0IccbXqg-26">
          <mxGeometry relative="1" as="geometry">
            <mxPoint x="442" y="360" as="targetPoint" />
          </mxGeometry>
        </mxCell>
        <mxCell id="REWSa89MCrhB0IccbXqg-5" value="" style="edgeStyle=orthogonalEdgeStyle;rounded=0;orthogonalLoop=1;jettySize=auto;html=1;" edge="1" parent="WIyWlLk6GJQsqaUBKTNV-1" source="WIyWlLk6GJQsqaUBKTNV-6" target="WIyWlLk6GJQsqaUBKTNV-10">
          <mxGeometry relative="1" as="geometry" />
        </mxCell>
        <mxCell id="WIyWlLk6GJQsqaUBKTNV-6" value="i&amp;lt;size" style="rhombus;whiteSpace=wrap;html=1;shadow=0;fontFamily=Helvetica;fontSize=12;align=center;strokeWidth=1;spacing=6;spacingTop=-4;" parent="WIyWlLk6GJQsqaUBKTNV-1" vertex="1">
          <mxGeometry x="292" y="320" width="100" height="80" as="geometry" />
        </mxCell>
        <mxCell id="REWSa89MCrhB0IccbXqg-13" style="edgeStyle=orthogonalEdgeStyle;rounded=0;orthogonalLoop=1;jettySize=auto;html=1;entryX=0.5;entryY=0;entryDx=0;entryDy=0;" edge="1" parent="WIyWlLk6GJQsqaUBKTNV-1" source="WIyWlLk6GJQsqaUBKTNV-10" target="REWSa89MCrhB0IccbXqg-12">
          <mxGeometry relative="1" as="geometry" />
        </mxCell>
        <mxCell id="REWSa89MCrhB0IccbXqg-14" value="" style="edgeStyle=orthogonalEdgeStyle;rounded=0;orthogonalLoop=1;jettySize=auto;html=1;" edge="1" parent="WIyWlLk6GJQsqaUBKTNV-1" source="WIyWlLk6GJQsqaUBKTNV-10" target="REWSa89MCrhB0IccbXqg-9">
          <mxGeometry relative="1" as="geometry" />
        </mxCell>
        <mxCell id="WIyWlLk6GJQsqaUBKTNV-10" value="massive[i]&amp;gt;max" style="rhombus;whiteSpace=wrap;html=1;shadow=0;fontFamily=Helvetica;fontSize=12;align=center;strokeWidth=1;spacing=6;spacingTop=-4;" parent="WIyWlLk6GJQsqaUBKTNV-1" vertex="1">
          <mxGeometry x="292" y="529" width="100" height="80" as="geometry" />
        </mxCell>
        <mxCell id="REWSa89MCrhB0IccbXqg-18" value="" style="edgeStyle=orthogonalEdgeStyle;rounded=0;orthogonalLoop=1;jettySize=auto;html=1;" edge="1" parent="WIyWlLk6GJQsqaUBKTNV-1" source="REWSa89MCrhB0IccbXqg-0" target="REWSa89MCrhB0IccbXqg-17">
          <mxGeometry relative="1" as="geometry" />
        </mxCell>
        <mxCell id="REWSa89MCrhB0IccbXqg-0" value="massive = 1,8,3,2,6&lt;br&gt;size=5&lt;br&gt;i=0&lt;br&gt;x=0" style="rounded=0;whiteSpace=wrap;html=1;" vertex="1" parent="WIyWlLk6GJQsqaUBKTNV-1">
          <mxGeometry x="282" y="106" width="120" height="74" as="geometry" />
        </mxCell>
        <mxCell id="REWSa89MCrhB0IccbXqg-8" value="print x" style="shape=document;whiteSpace=wrap;html=1;boundedLbl=1;" vertex="1" parent="WIyWlLk6GJQsqaUBKTNV-1">
          <mxGeometry x="680" y="550" width="120" height="80" as="geometry" />
        </mxCell>
        <mxCell id="REWSa89MCrhB0IccbXqg-15" value="" style="edgeStyle=orthogonalEdgeStyle;rounded=0;orthogonalLoop=1;jettySize=auto;html=1;" edge="1" parent="WIyWlLk6GJQsqaUBKTNV-1" source="REWSa89MCrhB0IccbXqg-9" target="REWSa89MCrhB0IccbXqg-12">
          <mxGeometry relative="1" as="geometry" />
        </mxCell>
        <mxCell id="REWSa89MCrhB0IccbXqg-9" value="max = massive[i]" style="rounded=0;whiteSpace=wrap;html=1;" vertex="1" parent="WIyWlLk6GJQsqaUBKTNV-1">
          <mxGeometry x="282" y="663" width="120" height="60" as="geometry" />
        </mxCell>
        <mxCell id="REWSa89MCrhB0IccbXqg-16" style="edgeStyle=orthogonalEdgeStyle;rounded=0;orthogonalLoop=1;jettySize=auto;html=1;entryX=0;entryY=0.5;entryDx=0;entryDy=0;exitX=0;exitY=0.5;exitDx=0;exitDy=0;" edge="1" parent="WIyWlLk6GJQsqaUBKTNV-1" source="REWSa89MCrhB0IccbXqg-12" target="WIyWlLk6GJQsqaUBKTNV-6">
          <mxGeometry relative="1" as="geometry">
            <Array as="points">
              <mxPoint x="120" y="690" />
              <mxPoint x="70" y="690" />
              <mxPoint x="70" y="360" />
            </Array>
          </mxGeometry>
        </mxCell>
        <mxCell id="REWSa89MCrhB0IccbXqg-12" value="i=i+1" style="rounded=0;whiteSpace=wrap;html=1;" vertex="1" parent="WIyWlLk6GJQsqaUBKTNV-1">
          <mxGeometry x="120" y="663" width="120" height="60" as="geometry" />
        </mxCell>
        <mxCell id="REWSa89MCrhB0IccbXqg-19" value="" style="edgeStyle=orthogonalEdgeStyle;rounded=0;orthogonalLoop=1;jettySize=auto;html=1;" edge="1" parent="WIyWlLk6GJQsqaUBKTNV-1" source="REWSa89MCrhB0IccbXqg-17" target="WIyWlLk6GJQsqaUBKTNV-6">
          <mxGeometry relative="1" as="geometry" />
        </mxCell>
        <mxCell id="REWSa89MCrhB0IccbXqg-17" value="max = massive[0]" style="rounded=0;whiteSpace=wrap;html=1;" vertex="1" parent="WIyWlLk6GJQsqaUBKTNV-1">
          <mxGeometry x="282" y="220" width="120" height="60" as="geometry" />
        </mxCell>
        <mxCell id="REWSa89MCrhB0IccbXqg-20" value="Нет" style="text;html=1;align=center;verticalAlign=middle;resizable=0;points=[];autosize=1;strokeColor=none;fillColor=none;" vertex="1" parent="WIyWlLk6GJQsqaUBKTNV-1">
          <mxGeometry x="210" y="545" width="40" height="30" as="geometry" />
        </mxCell>
        <mxCell id="REWSa89MCrhB0IccbXqg-21" value="Да" style="text;html=1;align=center;verticalAlign=middle;resizable=0;points=[];autosize=1;strokeColor=none;fillColor=none;" vertex="1" parent="WIyWlLk6GJQsqaUBKTNV-1">
          <mxGeometry x="340" y="620" width="40" height="30" as="geometry" />
        </mxCell>
        <mxCell id="REWSa89MCrhB0IccbXqg-22" value="Нет" style="text;html=1;align=center;verticalAlign=middle;resizable=0;points=[];autosize=1;strokeColor=none;fillColor=none;" vertex="1" parent="WIyWlLk6GJQsqaUBKTNV-1">
          <mxGeometry x="394" y="320" width="40" height="30" as="geometry" />
        </mxCell>
        <mxCell id="REWSa89MCrhB0IccbXqg-23" value="Да" style="text;html=1;align=center;verticalAlign=middle;resizable=0;points=[];autosize=1;strokeColor=none;fillColor=none;" vertex="1" parent="WIyWlLk6GJQsqaUBKTNV-1">
          <mxGeometry x="341" y="445" width="40" height="30" as="geometry" />
        </mxCell>
        <mxCell id="REWSa89MCrhB0IccbXqg-38" value="" style="edgeStyle=orthogonalEdgeStyle;rounded=0;orthogonalLoop=1;jettySize=auto;html=1;" edge="1" parent="WIyWlLk6GJQsqaUBKTNV-1" source="REWSa89MCrhB0IccbXqg-26" target="REWSa89MCrhB0IccbXqg-27">
          <mxGeometry relative="1" as="geometry" />
        </mxCell>
        <mxCell id="REWSa89MCrhB0IccbXqg-26" value="i=0" style="rounded=0;whiteSpace=wrap;html=1;" vertex="1" parent="WIyWlLk6GJQsqaUBKTNV-1">
          <mxGeometry x="460" y="330" width="120" height="60" as="geometry" />
        </mxCell>
        <mxCell id="REWSa89MCrhB0IccbXqg-47" value="" style="edgeStyle=orthogonalEdgeStyle;rounded=0;orthogonalLoop=1;jettySize=auto;html=1;" edge="1" parent="WIyWlLk6GJQsqaUBKTNV-1" source="REWSa89MCrhB0IccbXqg-27" target="REWSa89MCrhB0IccbXqg-8">
          <mxGeometry relative="1" as="geometry" />
        </mxCell>
        <mxCell id="REWSa89MCrhB0IccbXqg-27" value="i&amp;lt;size" style="rhombus;whiteSpace=wrap;html=1;shadow=0;fontFamily=Helvetica;fontSize=12;align=center;strokeWidth=1;spacing=6;spacingTop=-4;" vertex="1" parent="WIyWlLk6GJQsqaUBKTNV-1">
          <mxGeometry x="551" y="550" width="100" height="80" as="geometry" />
        </mxCell>
        <mxCell id="REWSa89MCrhB0IccbXqg-28" value="" style="edgeStyle=orthogonalEdgeStyle;rounded=0;orthogonalLoop=1;jettySize=auto;html=1;" edge="1" parent="WIyWlLk6GJQsqaUBKTNV-1" target="REWSa89MCrhB0IccbXqg-31">
          <mxGeometry relative="1" as="geometry">
            <mxPoint x="601" y="630" as="sourcePoint" />
          </mxGeometry>
        </mxCell>
        <mxCell id="REWSa89MCrhB0IccbXqg-29" style="edgeStyle=orthogonalEdgeStyle;rounded=0;orthogonalLoop=1;jettySize=auto;html=1;entryX=0.5;entryY=0;entryDx=0;entryDy=0;" edge="1" parent="WIyWlLk6GJQsqaUBKTNV-1" source="REWSa89MCrhB0IccbXqg-31" target="REWSa89MCrhB0IccbXqg-34">
          <mxGeometry relative="1" as="geometry" />
        </mxCell>
        <mxCell id="REWSa89MCrhB0IccbXqg-42" value="" style="edgeStyle=orthogonalEdgeStyle;rounded=0;orthogonalLoop=1;jettySize=auto;html=1;" edge="1" parent="WIyWlLk6GJQsqaUBKTNV-1" source="REWSa89MCrhB0IccbXqg-31" target="REWSa89MCrhB0IccbXqg-40">
          <mxGeometry relative="1" as="geometry" />
        </mxCell>
        <mxCell id="REWSa89MCrhB0IccbXqg-31" value="massive[i]&amp;lt;max" style="rhombus;whiteSpace=wrap;html=1;shadow=0;fontFamily=Helvetica;fontSize=12;align=center;strokeWidth=1;spacing=6;spacingTop=-4;" vertex="1" parent="WIyWlLk6GJQsqaUBKTNV-1">
          <mxGeometry x="551" y="653" width="100" height="80" as="geometry" />
        </mxCell>
        <mxCell id="REWSa89MCrhB0IccbXqg-32" value="" style="edgeStyle=orthogonalEdgeStyle;rounded=0;orthogonalLoop=1;jettySize=auto;html=1;" edge="1" parent="WIyWlLk6GJQsqaUBKTNV-1" source="REWSa89MCrhB0IccbXqg-33" target="REWSa89MCrhB0IccbXqg-34">
          <mxGeometry relative="1" as="geometry" />
        </mxCell>
        <mxCell id="REWSa89MCrhB0IccbXqg-33" value="x=massive[i]" style="rounded=0;whiteSpace=wrap;html=1;" vertex="1" parent="WIyWlLk6GJQsqaUBKTNV-1">
          <mxGeometry x="541" y="893" width="120" height="60" as="geometry" />
        </mxCell>
        <mxCell id="REWSa89MCrhB0IccbXqg-39" style="edgeStyle=orthogonalEdgeStyle;rounded=0;orthogonalLoop=1;jettySize=auto;html=1;entryX=0;entryY=0.5;entryDx=0;entryDy=0;" edge="1" parent="WIyWlLk6GJQsqaUBKTNV-1" source="REWSa89MCrhB0IccbXqg-34" target="REWSa89MCrhB0IccbXqg-27">
          <mxGeometry relative="1" as="geometry">
            <Array as="points">
              <mxPoint x="420" y="590" />
            </Array>
          </mxGeometry>
        </mxCell>
        <mxCell id="REWSa89MCrhB0IccbXqg-34" value="i=i+1" style="rounded=0;whiteSpace=wrap;html=1;" vertex="1" parent="WIyWlLk6GJQsqaUBKTNV-1">
          <mxGeometry x="379" y="893" width="120" height="60" as="geometry" />
        </mxCell>
        <mxCell id="REWSa89MCrhB0IccbXqg-35" value="Нет" style="text;html=1;align=center;verticalAlign=middle;resizable=0;points=[];autosize=1;strokeColor=none;fillColor=none;" vertex="1" parent="WIyWlLk6GJQsqaUBKTNV-1">
          <mxGeometry x="480" y="664" width="40" height="30" as="geometry" />
        </mxCell>
        <mxCell id="REWSa89MCrhB0IccbXqg-36" value="Нет" style="text;html=1;align=center;verticalAlign=middle;resizable=0;points=[];autosize=1;strokeColor=none;fillColor=none;" vertex="1" parent="WIyWlLk6GJQsqaUBKTNV-1">
          <mxGeometry x="600" y="850" width="40" height="30" as="geometry" />
        </mxCell>
        <mxCell id="REWSa89MCrhB0IccbXqg-37" value="Да" style="text;html=1;align=center;verticalAlign=middle;resizable=0;points=[];autosize=1;strokeColor=none;fillColor=none;" vertex="1" parent="WIyWlLk6GJQsqaUBKTNV-1">
          <mxGeometry x="600" y="630" width="40" height="30" as="geometry" />
        </mxCell>
        <mxCell id="REWSa89MCrhB0IccbXqg-43" value="" style="edgeStyle=orthogonalEdgeStyle;rounded=0;orthogonalLoop=1;jettySize=auto;html=1;" edge="1" parent="WIyWlLk6GJQsqaUBKTNV-1" source="REWSa89MCrhB0IccbXqg-40" target="REWSa89MCrhB0IccbXqg-33">
          <mxGeometry relative="1" as="geometry" />
        </mxCell>
        <mxCell id="REWSa89MCrhB0IccbXqg-44" style="edgeStyle=orthogonalEdgeStyle;rounded=0;orthogonalLoop=1;jettySize=auto;html=1;entryX=0.75;entryY=0;entryDx=0;entryDy=0;" edge="1" parent="WIyWlLk6GJQsqaUBKTNV-1" source="REWSa89MCrhB0IccbXqg-40" target="REWSa89MCrhB0IccbXqg-34">
          <mxGeometry relative="1" as="geometry" />
        </mxCell>
        <mxCell id="REWSa89MCrhB0IccbXqg-40" value="massive[i]&amp;lt;x" style="rhombus;whiteSpace=wrap;html=1;shadow=0;fontFamily=Helvetica;fontSize=12;align=center;strokeWidth=1;spacing=6;spacingTop=-4;" vertex="1" parent="WIyWlLk6GJQsqaUBKTNV-1">
          <mxGeometry x="551" y="760" width="100" height="80" as="geometry" />
        </mxCell>
        <mxCell id="REWSa89MCrhB0IccbXqg-45" value="Да" style="text;html=1;align=center;verticalAlign=middle;resizable=0;points=[];autosize=1;strokeColor=none;fillColor=none;" vertex="1" parent="WIyWlLk6GJQsqaUBKTNV-1">
          <mxGeometry x="499" y="770" width="40" height="30" as="geometry" />
        </mxCell>
      </root>
    </mxGraphModel>
  </diagram>
</mxfile>
